# xmcd
#
# Track frame offsets: 
#        150
#        34270
#        63913
#        95289
#        122369
#        152214
#        180755
#        209468
#        237056
#        270028
#        299153
#
# Disc length: 4760 seconds
#
# Revision: 0
# Processed by: cddbd v1.5.2PL0 Copyright (c) Steve Scherf et al.
# Submitted via: ExactAudioCopy v1.3
#
DISCID=8c12960b
DTITLE=Various Artist - Akella Present - vol. 211 - Longtime Of Rocki
DTITLE=n' Blues  CD1
DYEAR=2019
DGENRE=Blues
TTITLE0=Billy Boy Arnold - Billy Boy Arnold
TTITLE1=Gregor Hilden - Hear My Train A Coming
TTITLE2=Larry Miller - Ain't No Love Here Anymore
TTITLE3=The Spectaculars - Lost Another Friend
TTITLE4=Kern Pratt - Something's Gone Wrong
TTITLE5=John Verity - I'd Rather Go Blind
TTITLE6=Tas Cru - Can't Get Over Blues
TTITLE7=B.B. Leon and Triple Treat - 11. Rock Me Baby
TTITLE8=Dennis Glen Avina - Listen To Me
TTITLE9=Andy J. Forest - Blues On The News
TTITLE10=Christian Dozzler And The Blues Wave - Crying In The Kitchen
EXTD=
EXTT0=
EXTT1=
EXTT2=
EXTT3=
EXTT4=
EXTT5=
EXTT6=
EXTT7=
EXTT8=
EXTT9=
EXTT10=
PLAYORDER=
